<?xml version="1.0" standalone="no"?>
<!DOCTYPE svg PUBLIC "-//W3C//DTD SVG 20010904//EN"
 "http://www.w3.org/TR/2001/REC-SVG-20010904/DTD/svg10.dtd">
<svg version="1.0" xmlns="http://www.w3.org/2000/svg"
 width="1280.000000pt" height="640.000000pt" viewBox="0 0 1280.000000 640.000000"
 preserveAspectRatio="xMidYMid meet">
<metadata>
Created by potrace 1.15, written by Peter Selinger 2001-2017
</metadata>
<g transform="translate(0.000000,640.000000) scale(0.100000,-0.100000)"
fill="#000000" stroke="none">
<path d="M10765 6337 c22 -20 35 -36 30 -37 -6 0 -17 6 -25 13 -7 6 19 -26 57
-73 39 -47 70 -87 68 -89 -2 -2 -16 6 -32 17 -77 54 -151 81 -299 107 -82 14
-159 29 -171 32 -46 11 -20 -13 45 -42 79 -34 315 -159 355 -188 16 -10 26
-21 23 -24 -2 -3 -15 2 -28 11 -12 9 -33 16 -45 16 -12 0 -52 11 -89 25 -115
43 -213 58 -353 53 -93 -4 -143 -11 -191 -27 -95 -32 -263 -118 -299 -153 -33
-32 -41 -54 -17 -45 8 3 33 11 56 17 23 6 76 25 118 42 66 26 96 32 212 39
180 11 380 11 380 0 0 -4 -42 -11 -92 -14 -51 -3 -120 -14 -153 -25 -231 -76
-340 -125 -392 -175 -36 -34 -45 -64 -15 -52 146 57 529 172 539 161 5 -4
-271 -142 -321 -160 -75 -26 109 4 299 50 17 4 -1 -9 -40 -30 -38 -20 -77 -43
-85 -51 -12 -13 -11 -15 10 -15 14 0 79 7 144 15 66 8 121 13 123 11 3 -2 -13
-10 -34 -16 -68 -22 -223 -106 -223 -121 0 -8 87 5 320 46 107 19 195 33 197
32 1 -2 -66 -33 -150 -70 -84 -37 -151 -71 -150 -76 3 -10 -20 -15 -109 -25
-110 -13 -261 -90 -362 -185 -62 -60 -116 -142 -116 -179 0 -28 -34 -152 -50
-182 -6 -12 -13 -38 -15 -58 l-3 -37 51 55 c29 30 78 84 110 120 l59 65 -36
-75 c-33 -69 -48 -150 -28 -150 4 0 46 39 92 86 79 79 183 163 320 258 l55 38
-53 -47 c-57 -51 -146 -155 -138 -162 6 -6 84 34 124 64 18 14 50 26 70 28 20
1 54 7 74 13 34 9 29 2 -80 -107 -129 -128 -221 -253 -284 -387 -35 -76 -72
-202 -61 -213 2 -3 29 20 60 50 31 30 53 47 50 38 -3 -9 -15 -49 -27 -90 -12
-40 -26 -83 -30 -95 l-9 -22 -93 20 c-63 13 -110 17 -145 13 -29 -4 -53 -4
-53 -2 0 3 30 16 68 29 l67 23 -54 3 c-87 5 -342 -42 -441 -82 -10 -4 -22 6
-37 33 -45 78 -159 148 -354 216 -57 20 -124 38 -148 41 l-44 4 61 -40 c34
-22 62 -41 62 -44 0 -2 -28 5 -62 15 -55 18 -80 19 -209 13 l-147 -7 -17 33
c-9 17 -22 51 -29 75 -28 92 -103 168 -226 230 -94 48 -161 66 -275 76 -126
10 -276 32 -320 47 -16 6 -42 13 -57 16 -16 4 -28 10 -28 14 0 4 73 -7 163
-25 89 -18 169 -32 177 -32 8 0 -29 23 -82 51 -54 28 -97 53 -95 54 2 2 289
-37 365 -49 12 -3 22 -2 22 0 0 10 -133 65 -215 88 -84 24 -86 25 -35 20 30
-3 102 -8 160 -11 l105 -5 -54 26 c-29 14 -57 25 -62 25 -4 0 -10 4 -13 8 -3
5 52 -1 122 -14 70 -12 128 -21 130 -19 7 7 -312 135 -376 150 -40 10 -71 19
-69 22 13 12 422 -85 575 -137 45 -16 82 -24 82 -19 0 15 -74 59 -170 100 -76
33 -190 67 -305 92 -11 3 41 5 115 6 125 1 146 -2 278 -35 78 -20 145 -34 149
-31 19 20 -75 75 -172 102 -33 9 -71 22 -85 29 -32 17 -64 24 -158 36 -105 14
-222 -2 -359 -49 -62 -21 -113 -37 -113 -35 0 7 228 139 295 171 39 18 59 31
45 29 -14 -3 -78 -14 -144 -25 -128 -23 -200 -54 -276 -118 -22 -19 -40 -32
-40 -29 0 8 132 160 142 164 4 2 8 8 8 14 0 6 -8 4 -18 -5 -21 -19 -37 -22
-26 -5 16 25 -219 -147 -295 -217 -24 -22 -57 -60 -74 -85 -16 -25 -32 -47
-34 -49 -1 -2 -11 3 -20 11 -88 77 -303 110 -571 88 -79 -7 -155 -16 -170 -21
-22 -7 -18 -8 16 -4 28 4 41 2 37 -5 -3 -5 -21 -10 -38 -11 -18 -1 12 -7 66
-14 134 -19 140 -21 82 -28 -166 -23 -177 -27 -297 -98 -108 -65 -162 -105
-112 -84 70 29 360 93 371 81 4 -3 -3 -6 -15 -6 -12 0 -22 -3 -22 -8 0 -4 -28
-17 -63 -30 -83 -30 -172 -89 -248 -165 -49 -49 -73 -87 -122 -186 -45 -92
-61 -135 -61 -167 -1 -24 3 -44 9 -45 5 -1 34 43 65 97 46 83 74 118 170 212
136 134 201 186 124 99 -60 -68 -126 -181 -171 -291 -34 -85 -52 -166 -37
-166 5 0 38 57 74 127 93 181 234 393 262 393 6 0 2 -10 -9 -22 -11 -13 -29
-39 -41 -58 -21 -36 -134 -321 -129 -327 2 -1 34 42 72 97 37 55 70 100 72
100 2 0 1 -10 -3 -22 -4 -13 -13 -43 -21 -68 l-13 -45 63 65 c34 36 82 88 106
115 46 53 45 50 -18 -57 -22 -39 -73 -178 -65 -178 9 0 37 35 150 183 57 76
104 136 104 132 0 -3 -18 -54 -40 -114 -22 -60 -40 -112 -40 -117 0 -4 28 32
63 82 80 115 140 193 149 193 4 1 -9 -29 -29 -66 -38 -69 -90 -136 -200 -255
-36 -40 -76 -97 -99 -143 -38 -77 -38 -78 -38 -199 1 -130 6 -148 65 -228 15
-22 33 -55 39 -74 7 -19 15 -32 20 -29 5 3 11 -1 13 -7 3 -7 6 34 7 92 1 66 5
96 9 80 11 -35 49 -108 60 -114 18 -12 26 20 27 114 2 83 8 141 32 280 6 38 7
33 17 -72 4 -38 10 -68 14 -68 7 0 41 97 41 118 0 7 16 33 37 59 l36 48 -6
-77 c-12 -169 29 -412 92 -536 43 -85 51 -86 51 -5 l0 68 55 -110 c30 -60 55
-116 55 -122 0 -7 5 -13 10 -13 6 0 10 8 10 18 0 22 -19 151 -26 177 -3 11 19
-25 48 -80 29 -55 60 -110 69 -123 17 -24 99 -86 99 -75 0 6 -63 128 -175 338
-53 98 -50 101 10 11 39 -58 139 -145 152 -132 7 7 -14 52 -72 154 l-35 63 32
-17 c18 -9 41 -23 51 -32 15 -14 17 -14 17 0 0 9 -16 60 -36 114 l-35 99 45
-45 c25 -24 46 -38 46 -32 0 7 -13 45 -30 84 -35 83 -36 87 -10 63 11 -10 20
-16 20 -13 0 2 -20 66 -45 141 -25 76 -45 143 -45 150 0 6 23 -31 51 -83 59
-110 63 -115 53 -75 -12 52 1 25 86 -175 96 -225 130 -296 310 -630 455 -848
776 -1607 875 -2073 l23 -108 -38 -98 c-21 -54 -53 -127 -71 -162 -18 -35
-110 -230 -205 -434 l-173 -370 -33 2 c-18 1 -244 7 -503 13 -258 6 -485 14
-504 16 l-35 6 40 23 c21 13 57 34 79 46 110 60 118 85 59 183 -74 123 -152
301 -201 461 -34 108 -52 141 -124 227 -92 109 -105 143 -131 358 -19 149 -22
223 -20 380 l3 195 37 38 c20 22 75 66 122 99 47 34 119 89 160 123 41 34 109
87 150 119 140 107 187 186 177 303 -6 89 -26 141 -60 167 -24 18 -45 21 -180
24 -112 3 -179 -1 -257 -14 -58 -9 -121 -17 -139 -18 -32 -1 -36 2 -47 40 -21
71 -41 99 -113 158 -38 31 -88 77 -111 102 -38 42 -42 50 -36 83 3 20 11 81
17 137 10 93 10 103 -9 140 -38 74 -89 105 -174 106 -93 0 -148 -61 -148 -164
0 -58 24 -223 39 -277 6 -18 28 -50 51 -71 22 -20 40 -46 40 -57 0 -11 -18
-43 -40 -73 -53 -71 -74 -137 -73 -232 1 -83 -3 -91 -52 -102 -40 -10 -485
-214 -605 -278 -250 -134 -597 -371 -814 -557 -184 -158 -241 -215 -233 -234
7 -18 142 -51 267 -67 121 -15 384 -12 530 5 215 25 393 66 653 151 154 51
172 55 220 47 l52 -8 6 -95 c4 -52 12 -122 19 -155 6 -33 15 -121 20 -195 10
-147 60 -428 109 -605 16 -60 35 -145 41 -187 14 -98 3 -123 -77 -171 -76 -44
-112 -58 -203 -77 -66 -13 -75 -18 -78 -38 l-4 -24 -146 6 c-81 4 -592 15
-1137 26 -1023 21 -1147 28 -1357 71 -410 84 -863 343 -1114 637 -233 272
-360 597 -365 932 -2 122 -4 136 -25 144 -27 10 -50 -11 -82 -77 -112 -228
-80 -501 95 -802 94 -162 303 -413 437 -524 42 -35 75 -66 72 -69 -9 -8 -132
78 -236 166 -155 130 -246 248 -335 434 -120 250 -165 518 -120 709 23 99 14
134 -36 134 -29 0 -35 -4 -44 -30 -14 -41 -25 -56 -36 -50 -13 9 -11 49 7 119
22 86 28 90 75 63 l40 -22 22 26 c12 15 48 67 79 117 62 99 98 126 180 137 80
11 87 15 160 81 177 160 476 232 784 190 142 -19 167 -14 190 39 19 47 5 100
-38 142 -47 44 -70 53 -133 53 -54 0 -56 1 -67 31 -11 33 -6 32 -93 17 -17 -2
-20 3 -20 33 0 58 -16 69 -104 69 -47 1 -86 6 -101 15 -38 22 -57 18 -100 -22
-60 -53 -65 -68 -41 -109 l20 -34 -22 5 c-40 10 -70 -16 -98 -85 -27 -68 -50
-85 -68 -51 -9 17 -6 26 19 54 35 40 38 73 11 117 -15 25 -16 37 -8 69 19 69
10 75 -101 68 -53 -3 -115 -12 -137 -19 -34 -11 -40 -18 -43 -45 -2 -23 5 -40
27 -66 35 -39 37 -49 17 -66 -18 -15 -42 -4 -107 51 -54 45 -90 49 -122 13
-85 -94 -91 -112 -54 -175 20 -36 21 -40 6 -56 -15 -15 -19 -13 -47 29 -50 72
-126 95 -198 61 -19 -9 -43 -29 -54 -44 -14 -20 -26 -26 -43 -23 -12 3 -56 -7
-97 -21 -40 -14 -86 -26 -101 -26 -45 0 -58 -10 -69 -50 -7 -27 -21 -45 -45
-60 -39 -24 -75 -66 -75 -87 0 -8 20 -36 45 -62 49 -52 54 -75 29 -123 l-17
-32 -18 23 c-11 13 -19 29 -19 36 0 25 -52 65 -85 65 -51 0 -76 -27 -83 -90
l-7 -55 -55 -7 c-61 -7 -83 -26 -99 -85 -11 -39 -6 -59 21 -89 17 -20 16 -54
-2 -54 -14 0 -29 -53 -46 -165 -21 -138 -20 -137 -41 -133 -22 4 -63 64 -63
92 0 12 11 42 25 68 29 54 32 109 10 161 -34 81 -13 151 91 307 39 58 87 132
107 165 20 33 75 100 124 150 77 79 87 93 85 122 -2 18 2 33 7 33 5 0 28 20
52 45 44 47 102 76 147 74 36 -1 99 16 118 32 9 7 28 38 43 68 l28 55 17 -32
c23 -45 54 -43 95 9 42 52 74 64 123 48 35 -11 43 -10 105 19 106 48 147 56
263 52 242 -7 249 -6 334 30 l79 34 23 -29 c13 -17 40 -34 66 -41 24 -7 69
-22 101 -35 52 -20 65 -21 110 -12 61 13 77 4 77 -38 0 -41 29 -52 150 -57 58
-2 113 -8 122 -13 9 -5 21 -24 27 -42 9 -26 23 -39 63 -58 42 -19 54 -30 60
-55 6 -23 17 -35 40 -44 86 -32 109 -45 151 -89 84 -87 167 -237 167 -303 0
-44 -21 -120 -60 -217 -26 -67 -18 -79 39 -62 52 15 97 53 122 103 15 30 21
67 26 156 7 140 2 156 -100 304 -75 107 -124 156 -194 192 -54 27 -76 49 -122
123 -61 98 -121 133 -226 133 -51 0 -59 3 -179 70 l-59 33 -42 -23 c-52 -28
-76 -23 -142 29 -98 77 -126 83 -235 52 -68 -20 -150 -26 -343 -25 -104 0
-115 2 -200 37 -113 48 -166 55 -235 32 -63 -21 -99 -15 -148 24 -21 15 -47
31 -60 35 -44 14 -134 -16 -304 -101 l-171 -86 -30 36 c-16 21 -35 37 -43 37
-29 0 -103 -82 -142 -158 -50 -97 -57 -130 -37 -168 29 -56 23 -70 -77 -194
-38 -47 -91 -119 -118 -160 -27 -41 -58 -88 -70 -103 -45 -57 -120 -265 -156
-428 -20 -93 -20 -257 0 -369 59 -333 223 -649 534 -1032 121 -148 397 -432
514 -528 l67 -55 -502 -6 c-591 -7 -826 -25 -962 -74 -22 -8 -78 -24 -125 -35
-102 -26 -129 -38 -109 -51 8 -5 225 -9 484 -9 664 0 1972 -18 5925 -80 4693
-74 5250 -80 5250 -61 0 5 -53 23 -117 41 -223 61 -279 91 -269 142 5 24 2 30
-21 39 -66 25 -385 55 -878 84 -148 9 -272 20 -275 25 -3 5 -19 123 -35 262
-36 302 -39 539 -11 733 62 430 193 925 430 1616 148 432 187 539 339 915 135
333 161 411 258 744 61 215 86 284 74 205 -11 -66 5 -33 50 107 24 73 44 126
44 118 0 -8 -12 -96 -28 -195 -16 -99 -26 -182 -24 -185 3 -3 11 4 19 14 20
27 18 16 -13 -86 -14 -48 -23 -91 -20 -95 4 -3 25 15 48 40 22 26 44 47 49 47
4 0 -1 -28 -12 -62 -25 -83 -48 -190 -41 -201 3 -4 20 8 39 27 19 20 44 36 55
36 19 0 19 -1 3 -37 -56 -129 -85 -208 -82 -225 3 -18 8 -16 55 18 38 28 62
57 85 101 18 34 34 61 35 59 3 -3 -94 -272 -136 -379 -17 -43 -31 -80 -31 -82
0 -15 26 0 66 37 46 43 104 148 139 256 9 28 17 52 18 52 1 0 0 -54 -2 -121
-4 -138 10 -178 29 -83 6 33 28 109 48 169 l37 110 14 -88 c9 -57 17 -84 22
-75 18 27 58 166 75 263 21 118 25 464 6 529 -15 54 -8 56 20 7 13 -23 28 -39
34 -37 7 3 17 -14 23 -40 6 -24 21 -70 33 -102 20 -52 22 -55 29 -32 4 14 8
61 9 105 l2 80 33 -130 c19 -71 39 -170 45 -219 6 -48 16 -111 22 -139 10 -47
12 -49 24 -32 27 36 53 123 62 206 l9 84 2 -81 c2 -155 14 -324 23 -324 4 0 8
9 8 20 0 11 4 20 8 20 11 0 48 77 57 120 4 19 18 55 31 80 42 78 30 232 -30
391 -45 120 -88 189 -166 270 -36 37 -85 93 -110 124 -24 31 -57 66 -72 77
-16 10 -37 41 -49 67 -11 27 -36 63 -55 82 -34 33 -42 49 -25 49 5 0 71 -79
146 -175 75 -96 141 -175 147 -175 7 0 7 4 0 13 -6 6 -33 68 -61 136 -28 68
-56 130 -62 138 -6 7 -9 13 -6 13 2 0 33 -37 68 -82 83 -108 270 -321 276
-315 9 9 -55 156 -101 233 l-47 78 79 -85 c43 -46 95 -102 116 -124 l38 -40
-6 35 c-3 19 -21 65 -39 103 -18 37 -31 67 -28 67 3 -1 53 -66 111 -145 58
-79 106 -142 108 -141 6 7 -192 415 -224 460 -32 44 -33 47 -9 26 62 -57 285
-375 376 -538 l49 -87 0 40 c-1 111 -151 388 -295 545 -66 72 -36 49 110 -85
197 -181 247 -240 311 -367 19 -38 39 -68 44 -68 19 0 22 51 5 103 -36 111
-139 276 -244 389 -87 95 -212 175 -337 219 -45 15 -109 59 -86 59 20 0 293
-52 342 -65 30 -8 56 -13 57 -11 2 2 -27 21 -64 43 -204 120 -248 136 -401
149 -83 8 -85 8 -42 16 25 4 90 16 145 26 99 18 99 18 55 26 -25 4 -64 13 -86
21 -23 8 -118 19 -212 26 -249 18 -381 -5 -515 -87 l-57 -36 -72 77 c-83 89
-227 209 -378 317 -142 101 -177 122 -125 75z m80 -63 c17 -14 21 -21 10 -15
-30 14 -61 40 -50 41 6 0 24 -12 40 -26z m-10 -484 c4 -6 -14 -10 -47 -9 -42
1 -48 3 -28 9 36 12 68 12 75 0z m125 -180 c-38 -24 -184 -61 -270 -69 -52 -4
-97 -7 -98 -5 -6 4 64 22 193 49 66 14 134 29 150 34 34 9 47 5 25 -9z m970
-62 c15 -21 17 -28 6 -19 -16 13 -41 51 -33 51 2 0 14 -15 27 -32z m-4080
-344 c0 -2 -7 -4 -15 -4 -8 0 -15 4 -15 10 0 5 7 7 15 4 8 -4 15 -8 15 -10z
m-934 -192 c-18 -16 -18 -16 -6 6 6 13 14 21 18 18 3 -4 -2 -14 -12 -24z
m4055 -137 c-10 -33 -28 -94 -40 -135 -20 -72 -20 -74 -1 -50 11 14 43 66 72
117 28 51 53 91 55 90 7 -8 -110 -293 -163 -399 -18 -37 -60 -133 -93 -215
-83 -208 -179 -433 -351 -822 -192 -436 -294 -691 -390 -981 -191 -571 -290
-1059 -291 -1434 0 -158 26 -508 46 -615 9 -46 15 -84 13 -86 -3 -2 -553 21
-553 24 0 85 -9 182 -30 312 -130 827 -125 776 -92 889 30 103 81 332 101 455
26 156 45 350 66 675 27 425 70 950 80 975 6 13 9 -8 9 -59 1 -44 4 -76 8 -72
4 4 15 44 24 89 l16 82 8 -67 c4 -38 4 -94 0 -125 -6 -53 -6 -56 10 -43 15 13
16 8 10 -61 -5 -62 -4 -71 7 -55 7 10 22 30 34 44 l20 25 -9 -82 c-5 -45 -6
-85 -3 -88 4 -4 21 8 39 25 18 18 35 32 39 32 3 0 0 -21 -7 -47 -7 -27 -16
-68 -20 -93 l-7 -45 32 30 c41 39 56 67 71 143 7 34 16 62 19 62 4 0 -13 -91
-37 -202 -23 -112 -43 -205 -43 -207 0 -2 16 12 35 32 30 31 39 52 58 134 l23
98 7 -52 c4 -28 13 -66 19 -85 l12 -33 7 30 c4 17 7 53 8 82 0 28 6 64 12 80
l11 28 20 -53 c11 -29 22 -51 25 -49 2 3 9 36 14 73 17 122 -16 302 -87 469
-7 17 -3 16 27 -7 50 -40 61 -51 94 -99 36 -53 43 -37 21 47 -8 32 -14 59 -13
60 1 1 26 -51 56 -115 30 -64 65 -136 79 -160 22 -40 26 -42 35 -25 6 10 14
39 17 64 l6 45 25 -74 c14 -41 30 -76 36 -78 6 -2 20 35 32 85 19 77 20 96 10
143 -24 118 -115 234 -219 282 -82 38 -301 189 -290 200 3 2 61 -36 129 -85
68 -49 126 -86 129 -84 3 3 -4 13 -15 23 -21 18 -83 96 -98 122 -5 8 52 -27
126 -77 73 -50 135 -89 138 -87 5 6 -43 70 -88 118 -40 43 -36 47 17 14 85
-53 132 -77 132 -69 0 5 -16 27 -35 49 -19 23 -35 44 -35 47 0 3 32 -19 71
-48 40 -29 86 -62 103 -72 l31 -18 -35 44 c-19 24 -73 85 -120 135 -47 49 -78
85 -70 79 71 -50 190 -147 190 -155 0 -5 6 -9 12 -9 7 0 47 -35 90 -77 43 -42
80 -75 82 -72 11 10 -36 88 -89 149 -54 63 -64 83 -45 95 18 11 133 -60 191
-119 62 -62 76 -66 65 -19 -9 32 -134 163 -193 201 -27 17 -41 33 -38 42 2 8
23 89 45 179 23 90 47 176 55 190 17 30 18 21 5 -34 -22 -97 -31 -219 -20
-267 7 -26 18 -48 25 -48 7 0 25 49 45 130 19 72 37 130 41 130 3 0 17 -24 29
-52 l23 -53 58 115 58 115 0 -62 c1 -105 20 -93 72 47 20 53 28 67 29 48 0
-16 3 -28 8 -28 4 0 43 72 87 160 43 87 80 158 82 157 1 -2 -6 -30 -16 -62z
m-2640 -203 c59 -42 134 -98 169 -124 34 -27 66 -48 71 -48 20 0 -14 86 -58
150 -10 14 26 -14 78 -62 l96 -87 -3 34 c-1 20 2 35 9 35 20 0 312 -62 324
-68 6 -4 -63 -7 -155 -7 -149 0 -175 -3 -240 -24 -40 -13 -102 -41 -138 -62
-37 -22 -69 -39 -73 -39 -4 0 -23 21 -43 48 -51 65 -159 174 -240 239 -37 30
-68 57 -68 58 0 9 132 -36 189 -64 36 -17 67 -28 70 -25 3 2 -22 31 -54 64
-33 33 -55 60 -50 60 6 -1 58 -35 116 -78z m-519 -209 c36 -54 77 -119 92
-145 32 -55 39 -59 31 -20 -4 15 13 -8 36 -50 23 -43 46 -78 51 -78 6 0 8 23
6 54 -1 30 -1 53 2 51 3 -2 30 -45 60 -95 l54 -91 15 52 16 52 49 -112 c27
-61 53 -111 57 -111 16 0 16 108 -1 175 -10 39 -17 71 -16 72 1 1 39 -87 85
-195 46 -108 87 -201 92 -206 5 -6 9 15 9 52 0 56 -15 110 -76 267 -4 11 11
-2 33 -30 22 -27 57 -66 78 -85 l37 -35 -46 93 c-26 51 -44 97 -41 102 10 16
31 11 50 -10 26 -29 36 -25 23 11 -6 17 -7 34 -2 39 19 18 366 190 382 189 9
0 -12 -15 -48 -33 -60 -29 -305 -196 -270 -183 8 3 60 24 115 46 66 27 91 34
73 21 -14 -11 -37 -29 -50 -40 l-23 -20 30 6 c17 4 78 24 138 44 59 21 107 36
107 34 0 -1 -32 -20 -70 -40 -63 -33 -178 -124 -140 -110 8 3 87 34 175 70
168 68 174 64 35 -25 -38 -24 -68 -48 -66 -54 1 -5 -26 -19 -61 -30 -106 -36
-220 -127 -284 -226 -26 -41 -31 -58 -33 -126 -2 -43 -5 -84 -7 -92 -2 -7 1
-15 6 -17 6 -2 30 25 54 61 24 36 46 64 47 62 1 -1 -2 -23 -7 -49 -6 -28 -7
-54 -2 -63 7 -12 25 5 86 82 42 54 103 125 137 158 l61 60 -45 -74 c-25 -41
-44 -77 -41 -79 2 -3 29 16 59 42 30 25 63 46 74 46 11 0 34 11 50 25 47 39
50 29 5 -17 -129 -136 -210 -292 -238 -460 -8 -49 5 -48 50 5 20 23 32 33 27
22 -5 -11 -12 -48 -16 -83 -4 -35 -10 -71 -12 -80 -10 -30 37 30 63 81 13 27
26 47 27 45 2 -1 -2 -40 -7 -84 -11 -86 -1 -185 19 -191 11 -4 24 74 43 252 7
68 8 69 15 30 10 -54 36 -125 45 -125 10 0 21 76 21 143 0 49 0 50 20 32 11
-10 22 -26 25 -36 4 -11 10 -19 14 -19 9 0 41 117 41 150 0 32 23 19 32 -19
12 -43 25 -32 33 29 7 54 18 64 30 28 7 -22 7 -22 12 -3 11 46 75 236 78 233
1 -1 -3 -32 -11 -68 -17 -80 -18 -112 -4 -90 15 24 12 2 -19 -152 -17 -79 -35
-192 -41 -253 -36 -367 -180 -1297 -209 -1352 -4 -7 -24 40 -45 105 -111 339
-317 771 -609 1277 -425 738 -692 1213 -670 1190 5 -5 36 -45 68 -88 31 -43
59 -76 61 -74 2 2 -18 52 -46 111 -27 59 -50 109 -50 111 0 13 13 -3 72 -92z
m2490 -68 c-15 -49 -23 -61 -41 -63 -13 -2 -22 0 -20 5 8 19 73 122 76 120 1
-2 -6 -30 -15 -62z m-1513 31 c-2 -2 -31 -15 -64 -28 -33 -14 -102 -51 -154
-82 -51 -31 -94 -56 -95 -54 -20 28 -36 54 -36 59 0 11 79 40 205 74 117 31
153 39 144 31z m1389 -141 c-7 -16 -17 -24 -26 -20 -7 3 -39 8 -70 11 -86 9
-94 18 -22 24 134 13 131 13 118 -15z m96 -2 c-11 -52 -12 -53 -36 -44 -13 5
-31 12 -41 15 -17 5 -17 7 -1 31 12 19 25 25 50 25 32 0 34 -2 28 -27z m-1064
-36 c0 -15 -287 -134 -297 -123 -4 4 267 124 285 125 6 1 12 -1 12 -2z m-786
-39 c-4 -6 -10 -5 -15 3 -14 22 -10 33 6 19 8 -7 12 -17 9 -22z m1796 -48 c22
-11 40 -25 40 -31 0 -6 -12 -2 -27 9 -16 10 -37 24 -48 30 -35 20 -6 13 35 -8z
m-350 -20 c8 -5 11 -10 5 -10 -5 0 -17 5 -25 10 -8 5 -10 10 -5 10 6 0 17 -5
25 -10z m-3056 -2562 c13 -29 29 -78 36 -108 16 -71 22 -80 127 -186 72 -73
105 -118 181 -246 121 -203 155 -284 150 -360 -5 -73 -31 -106 -144 -187 l-87
-62 -98 7 c-74 5 -96 10 -92 20 2 7 -5 61 -16 121 -45 237 -52 294 -57 448 -4
130 -11 184 -36 289 -21 90 -28 142 -24 170 9 61 29 146 33 146 2 0 14 -24 27
-52z m2082 -865 c-4 -104 -9 -221 -12 -261 l-6 -72 -79 0 c-57 0 -79 4 -79 13
0 15 173 507 179 507 2 0 1 -84 -3 -187z"/>
</g>
</svg>
